<?xml version="1.0" encoding="UTF-8" standalone="no"?><!DOCTYPE svg PUBLIC "-//W3C//DTD SVG 1.1//EN" "http://www.w3.org/Graphics/SVG/1.1/DTD/svg11.dtd"><svg width="100%" height="100%" viewBox="0 0 134 134" version="1.1" xmlns="http://www.w3.org/2000/svg" xmlns:xlink="http://www.w3.org/1999/xlink" xml:space="preserve" xmlns:serif="http://www.serif.com/" style="fill-rule:evenodd;clip-rule:evenodd;stroke-linejoin:round;stroke-miterlimit:2;"><path d="M133.333,66.667c0,-36.795 -29.872,-66.667 -66.666,-66.667c-36.795,0 -66.667,29.872 -66.667,66.667c0,36.794 29.872,66.666 66.667,66.666c36.794,0 66.666,-29.872 66.666,-66.666Z" style="fill:#f43f5e;"/><path d="M37.5,45.833c0,-4.571 3.762,-8.333 8.333,-8.333l8.334,0l-0,50c-0,4.572 -3.762,8.333 -8.334,8.333l-8.333,0l0,-50Zm41.667,0c-0,-4.571 3.761,-8.333 8.333,-8.333l8.333,0l0,50c0,4.572 -3.761,8.333 -8.333,8.333l-8.333,0l-0,-50Z" style="fill:#fff;fill-rule:nonzero;"/><path d="M64.362,67.108c1.41,-2.821 4.305,-4.609 7.459,-4.608l15.679,0l0,8.333l-25,0l1.862,-3.725Z" style="fill:#fff;fill-rule:nonzero;"/></svg>